<svg id="Group_148" data-name="Group 148" xmlns="http://www.w3.org/2000/svg" xmlns:xlink="http://www.w3.org/1999/xlink" width="151.821" height="78.288" viewBox="0 0 151.821 78.288">
  <defs>
    <clipPath id="clip-path">
      <rect id="Rectangle_154" data-name="Rectangle 154" width="151.821" height="78.288" fill="none"/>
    </clipPath>
    <clipPath id="clip-path-2">
      <path id="Path_36" data-name="Path 36" d="M89.555,81.349a31.831,31.831,0,0,0,47.205-5.592l-7.9-4.376c-4.414,8.988-20.769,20.232-39.3,9.968" transform="translate(-89.555 -71.381)" fill="none"/>
    </clipPath>
    <radialGradient id="radial-gradient" cx="0.5" cy="0.444" r="0.881" gradientTransform="translate(-1.57 3.681) rotate(180) scale(0.429 1.016)" gradientUnits="objectBoundingBox">
      <stop offset="0" stop-color="#140b0a"/>
      <stop offset="0.574" stop-color="#140b0a"/>
      <stop offset="0.798" stop-color="#140b0a"/>
      <stop offset="1" stop-color="#140b0a"/>
    </radialGradient>
  </defs>
  <g id="Group_143" data-name="Group 143">
    <g id="Group_142" data-name="Group 142" clip-path="url(#clip-path)">
      <path id="Path_9" data-name="Path 9" d="M104.977,0A32.62,32.62,0,0,0,78.452,13.6l8.028,4.376c4.484-8.988,21.1-20.233,39.922-9.968A32.537,32.537,0,0,0,104.977,0" transform="translate(-33.019 0)" fill="#636363"/>
      <path id="Path_10" data-name="Path 10" d="M89.426,41.583l-1.553,12.6H85.706l1.553-12.6H83.765l.246-2.016h9l-.246,2.016Z" transform="translate(-35.256 -16.653)" fill="#1a1311"/>
      <path id="Path_11" data-name="Path 11" d="M126.786,38.989l-1.912,15.619L116,43.287,114.735,53.6h-2.168l1.9-15.411,8.87,11.3,1.287-10.508Z" transform="translate(-47.378 -16.075)" fill="#1a1311"/>
      <path id="Path_12" data-name="Path 12" d="M162.861,40.66l-.293,2.367a6.143,6.143,0,0,0-4.534-1.931,4.726,4.726,0,0,0-3.749,1.647,6.231,6.231,0,0,0-1.439,4.269,5.192,5.192,0,0,0,1.382,3.843,5.247,5.247,0,0,0,3.881,1.373,5.723,5.723,0,0,0,3.692-1.287l-.312,2.565a10.865,10.865,0,0,1-3.758.748,6.783,6.783,0,0,1-5.122-2.016,7.308,7.308,0,0,1-1.941-5.32,7.964,7.964,0,0,1,2.064-5.623,6.8,6.8,0,0,1,5.206-2.235,8.94,8.94,0,0,1,4.922,1.6" transform="translate(-63.414 -16.44)" fill="#1a1311"/>
      <path id="Path_13" data-name="Path 13" d="M0,114.367H5.839v1.143H3.83v8.552H2.07V115.51H0Z" transform="translate(0 -48.135)" fill="#1a1311"/>
      <path id="Path_14" data-name="Path 14" d="M11.8,114.367h2.363a3.785,3.785,0,0,1,2.183.509,2.328,2.328,0,0,1,.905,2.015,2.7,2.7,0,0,1-.478,1.674,2.077,2.077,0,0,1-1.367.782l2.45,4.715h-1.82l-2.442-4.747v4.747H11.8Zm1.794,4.3a2.375,2.375,0,0,0,1.475-.352,1.451,1.451,0,0,0,.432-1.187,2.864,2.864,0,0,0-.091-.772,1.211,1.211,0,0,0-.284-.522,1.149,1.149,0,0,0-.5-.295,2.483,2.483,0,0,0-.729-.094h-.3Z" transform="translate(-4.965 -48.135)" fill="#1a1311"/>
      <path id="Path_15" data-name="Path 15" d="M24.65,114.367h1.76v6.85a2.547,2.547,0,0,0,.258,1.394,1.28,1.28,0,0,0,1.052.346,1.334,1.334,0,0,0,1.035-.3,2.08,2.08,0,0,0,.259-1.25v-7.039h1.759v7.039a2.723,2.723,0,0,1-.664,2.142,3.848,3.848,0,0,1-2.424.634,3.275,3.275,0,0,1-2.527-.816,3.29,3.29,0,0,1-.509-2.148Z" transform="translate(-10.375 -48.135)" fill="#1a1311"/>
      <path id="Path_16" data-name="Path 16" d="M42.924,114.472v1.274a3.258,3.258,0,0,0-1.475-.427,1.776,1.776,0,0,0-1.156.364,1.105,1.105,0,0,0-.448.924,1.28,1.28,0,0,0,.319.872,4.344,4.344,0,0,0,.54.5q.374.308.97.741a6.451,6.451,0,0,1,1.492,1.4,2.394,2.394,0,0,1,.4,1.4,2.308,2.308,0,0,1-.871,1.852,3.424,3.424,0,0,1-2.234.71,3.917,3.917,0,0,1-1.958-.459v-1.294a3.771,3.771,0,0,0,1.743.509,1.707,1.707,0,0,0,1.147-.355,1.2,1.2,0,0,0,.413-.964,1.527,1.527,0,0,0-.319-.949,4.246,4.246,0,0,0-.457-.462q-.294-.261-.733-.581-.682-.489-1.13-.866a4.385,4.385,0,0,1-.664-.659,2.258,2.258,0,0,1-.414-1.394,2.209,2.209,0,0,1,.811-1.8,3.364,3.364,0,0,1,2.2-.672,5.071,5.071,0,0,1,1.829.333" transform="translate(-16.029 -48.04)" fill="#1a1311"/>
      <path id="Path_17" data-name="Path 17" d="M48.318,114.367h5.839v1.143h-2.01v8.552H50.388V115.51h-2.07Z" transform="translate(-20.336 -48.135)" fill="#1a1311"/>
      <path id="Path_18" data-name="Path 18" d="M66.43,114.367H68.1l1.785,3.868a28.352,28.352,0,0,1,1.371,3.5q-.215-1.124-.319-2.034a15.247,15.247,0,0,1-.1-1.715v-3.617h1.8v9.695H70.959l-2.01-4.364q-.276-.609-.522-1.25t-.453-1.344a2.146,2.146,0,0,0-.056-.214c-.026-.083-.056-.18-.09-.289.017.109.031.2.043.28s.02.144.026.2l.095.986.095,1.2c.006.067.01.149.013.245s0,.205,0,.327l.094,4.226H66.43Z" transform="translate(-27.959 -48.135)" fill="#1a1311"/>
      <path id="Path_19" data-name="Path 19" d="M80.7,114.367h4.77v1.1H82.493v3.071h2.64v1.1h-2.64v3.309h2.976v1.1H80.7Z" transform="translate(-33.965 -48.135)" fill="#1a1311"/>
      <path id="Path_20" data-name="Path 20" d="M90.1,114.367h1.743l.923,1.877a7.824,7.824,0,0,1,.647,1.627q.095-.321.211-.622t.246-.6l.12-.283.854-2h1.811l-2.467,4.772,2.467,4.923H94.847l-.88-1.846q-.268-.552-.431-.992a5.249,5.249,0,0,1-.233-.779,3.5,3.5,0,0,1-.233.8l-.3.69-.156.364-.767,1.758h-1.9l2.519-4.923Z" transform="translate(-37.858 -48.135)" fill="#1a1311"/>
      <path id="Path_21" data-name="Path 21" d="M103.234,114.367h1.76v6.85a2.547,2.547,0,0,0,.258,1.394,1.28,1.28,0,0,0,1.052.346,1.334,1.334,0,0,0,1.035-.3,2.079,2.079,0,0,0,.259-1.25v-7.039h1.759v7.039a2.723,2.723,0,0,1-.664,2.142,3.848,3.848,0,0,1-2.424.634,2.481,2.481,0,0,1-3.036-2.964Z" transform="translate(-43.45 -48.135)" fill="#1a1311"/>
      <path id="Path_22" data-name="Path 22" d="M121.508,114.472v1.274a3.258,3.258,0,0,0-1.475-.427,1.776,1.776,0,0,0-1.156.364,1.105,1.105,0,0,0-.448.924,1.28,1.28,0,0,0,.319.872,4.344,4.344,0,0,0,.54.5q.374.308.97.741a6.451,6.451,0,0,1,1.492,1.4,2.394,2.394,0,0,1,.4,1.4,2.308,2.308,0,0,1-.871,1.852,3.424,3.424,0,0,1-2.234.71,3.917,3.917,0,0,1-1.958-.459v-1.294a3.77,3.77,0,0,0,1.743.509,1.707,1.707,0,0,0,1.147-.355,1.2,1.2,0,0,0,.413-.964,1.527,1.527,0,0,0-.319-.949,4.247,4.247,0,0,0-.457-.462q-.294-.261-.733-.581-.682-.489-1.13-.866a4.385,4.385,0,0,1-.664-.659,2.258,2.258,0,0,1-.414-1.394,2.209,2.209,0,0,1,.811-1.8,3.364,3.364,0,0,1,2.2-.672,5.071,5.071,0,0,1,1.829.333" transform="translate(-49.104 -48.04)" fill="#1a1311"/>
      <path id="Path_23" data-name="Path 23" d="M140.082,114.428V115.6a3.588,3.588,0,0,0-1.156-.245,2.418,2.418,0,0,0-1.1.229,1.878,1.878,0,0,0-.755.707,3.562,3.562,0,0,0-.44,1.209,9.156,9.156,0,0,0-.142,1.729q0,3.592,2.527,3.592a3.532,3.532,0,0,0,1.061-.2v1.2a3.815,3.815,0,0,1-1.449.264q-4.045,0-4.046-4.81a6.255,6.255,0,0,1,.988-3.868,3.592,3.592,0,0,1,3.023-1.268,4.012,4.012,0,0,1,1.484.289" transform="translate(-56.646 -48.04)" fill="#1a1311"/>
      <path id="Path_24" data-name="Path 24" d="M146.682,114.367h1.794v3.793h2.631v-3.793H152.9v9.695h-1.794v-4.8h-2.631v4.8h-1.794Z" transform="translate(-61.736 -48.135)" fill="#1a1311"/>
      <path id="Path_25" data-name="Path 25" d="M162.136,114.367h1.4l2.854,9.695h-1.776l-.5-1.89h-2.64l-.509,1.89h-1.725Zm1.716,6.794-.4-1.545a31.821,31.821,0,0,1-.647-3.365q-.12.872-.31,1.767t-.449,1.9l-.328,1.243Z" transform="translate(-67.021 -48.135)" fill="#1a1311"/>
      <rect id="Rectangle_153" data-name="Rectangle 153" width="1.794" height="9.695" transform="translate(100.42 66.232)" fill="#1a1311"/>
      <path id="Path_26" data-name="Path 26" d="M180.046,114.367h1.674l1.785,3.868a28.349,28.349,0,0,1,1.371,3.5q-.215-1.124-.319-2.034a15.247,15.247,0,0,1-.1-1.715v-3.617h1.8v9.695h-1.682l-2.01-4.364q-.276-.609-.522-1.25t-.453-1.344a2.144,2.144,0,0,0-.056-.214c-.026-.083-.056-.18-.09-.289.017.109.031.2.043.28s.02.144.026.2l.095.986.095,1.2c.006.067.01.149.013.245s0,.205,0,.327l.094,4.226h-1.768Z" transform="translate(-75.779 -48.135)" fill="#1a1311"/>
      <path id="Path_27" data-name="Path 27" d="M205.663,114.428V115.6a3.588,3.588,0,0,0-1.156-.245,2.418,2.418,0,0,0-1.1.229,1.878,1.878,0,0,0-.755.707,3.561,3.561,0,0,0-.44,1.209,9.157,9.157,0,0,0-.142,1.729q0,3.592,2.527,3.592a3.532,3.532,0,0,0,1.061-.2v1.2a3.814,3.814,0,0,1-1.449.264q-4.045,0-4.046-4.81a6.255,6.255,0,0,1,.988-3.868,3.592,3.592,0,0,1,3.023-1.268,4.012,4.012,0,0,1,1.484.289" transform="translate(-84.248 -48.04)" fill="#1a1311"/>
      <path id="Path_28" data-name="Path 28" d="M217.125,123.112q0,3.3-2.8,3.3t-2.8-3.347q0-3.359,2.794-3.359a3.53,3.53,0,0,1,1.255.2,2.05,2.05,0,0,1,.876.621,2.757,2.757,0,0,1,.514,1.062,6.081,6.081,0,0,1,.168,1.526m-1.708-.032a4.711,4.711,0,0,0-.233-1.783.835.835,0,0,0-.828-.508.864.864,0,0,0-.837.5,4.6,4.6,0,0,0-.233,1.752,4.541,4.541,0,0,0,.233,1.745.864.864,0,0,0,.837.5.831.831,0,0,0,.819-.5,4.147,4.147,0,0,0,.242-1.714" transform="translate(-89.025 -50.381)" fill="#1a1311"/>
      <path id="Path_29" data-name="Path 29" d="M224.655,128.592a1.19,1.19,0,0,1,.733.232.636.636,0,0,1,0,1.093,1.315,1.315,0,0,1-.751.219,1.409,1.409,0,0,1-.418-.06,1.183,1.183,0,0,1-.341-.163.771.771,0,0,1-.229-.245.592.592,0,0,1-.082-.3.659.659,0,0,1,.31-.546,1.3,1.3,0,0,1,.776-.226" transform="translate(-94.097 -54.123)" fill="#1a1311"/>
      <path id="Path_30" data-name="Path 30" d="M230.172,128.766l1.432.308-1.708,3.41-.906-.182Z" transform="translate(-96.379 -54.196)" fill="#1a1311"/>
      <path id="Path_31" data-name="Path 31" d="M236.646,114.367h1.794v8.59h2.933v1.1h-4.727Z" transform="translate(-99.601 -48.135)" fill="#1a1311"/>
      <path id="Path_32" data-name="Path 32" d="M246.265,116.742h1.648v1.821h.9v.954h-.9v5.544h-1.648v-5.544h-.906v-.954h.906Z" transform="translate(-103.268 -49.135)" fill="#1a1311"/>
      <path id="Path_33" data-name="Path 33" d="M258.211,112.686v10.668h-1.648v-.835a2.238,2.238,0,0,1-.707.734,1.9,1.9,0,0,1-.94.2,1.776,1.776,0,0,1-1.622-.826,5.036,5.036,0,0,1-.517-2.6,7.334,7.334,0,0,1,.129-1.476,2.96,2.96,0,0,1,.393-1.023,1.6,1.6,0,0,1,.677-.594,2.331,2.331,0,0,1,.983-.191,1.9,1.9,0,0,1,.9.188,1.7,1.7,0,0,1,.354.251,2.535,2.535,0,0,1,.353.4v-4.9Zm-3.726,7.391a4.77,4.77,0,0,0,.233,1.79.86.86,0,0,0,.846.508.836.836,0,0,0,.8-.528,6.194,6.194,0,0,0,0-3.485.837.837,0,0,0-.8-.527.864.864,0,0,0-.837.5,4.234,4.234,0,0,0-.241,1.739" transform="translate(-106.39 -47.428)" fill="#1a1311"/>
      <path id="Path_34" data-name="Path 34" d="M103.066,61.274a1.85,1.85,0,1,1-1.85-1.849,1.847,1.847,0,0,1,1.85,1.849" transform="translate(-41.822 -25.011)" fill="#1a1311"/>
      <path id="Path_35" data-name="Path 35" d="M143.889,60.835a1.85,1.85,0,1,1-1.85-1.849,1.847,1.847,0,0,1,1.85,1.849" transform="translate(-59.004 -24.826)" fill="#1a1311"/>
    </g>
  </g>
  <g id="Group_145" data-name="Group 145" transform="translate(51.863 41.338)">
    <g id="Group_144" data-name="Group 144" clip-path="url(#clip-path-2)">
      <rect id="Rectangle_155" data-name="Rectangle 155" width="47.205" height="20.232" transform="translate(0)" fill="url(#radial-gradient)"/>
    </g>
  </g>
  <g id="Group_147" data-name="Group 147">
    <g id="Group_146" data-name="Group 146" clip-path="url(#clip-path)">
      <path id="Path_37" data-name="Path 37" d="M84.776,72.754a21.723,21.723,0,0,0,18.665,10.7,21.465,21.465,0,0,0,6.823-1.108,22.621,22.621,0,0,1-10.03,2.333,22.941,22.941,0,0,1-20.06-11.922Z" transform="translate(-33.744 -30.621)" fill="#8e8e8f"/>
      <path id="Path_38" data-name="Path 38" d="M145.075,21.643h4.675a23.385,23.385,0,0,0-30.564-9.59,22.168,22.168,0,0,1,25.89,9.59" transform="translate(-50.163 -4.091)" fill="#8e8e8f"/>
    </g>
  </g>
</svg>
